<svg xmlns="http://www.w3.org/2000/svg" xmlns:xlink="http://www.w3.org/1999/xlink" width="300" viewBox="0 0 224.87999 127.500001" height="170" preserveAspectRatio="xMidYMid meet"><path fill="#000000" d="M 33.707031 76.445312 L 42.316406 76.445312 L 42.316406 55.5 L 46.949219 55.5 L 46.949219 48.351562 L 42.316406 48.351562 L 42.316406 48.101562 C 42.316406 45.128906 43.476562 44.125 46.796875 44.324219 L 46.796875 37.023438 C 38.238281 36.570312 33.707031 40.195312 33.707031 47.546875 L 33.707031 48.351562 L 30.585938 48.351562 L 30.585938 55.5 L 33.707031 55.5 Z M 49.28125 62.347656 C 49.28125 71.207031 54.769531 76.847656 61.617188 76.847656 C 65.796875 76.847656 68.765625 74.933594 70.324219 72.46875 L 70.324219 76.445312 L 78.933594 76.445312 L 78.933594 48.351562 L 70.324219 48.351562 L 70.324219 52.328125 C 68.816406 49.863281 65.84375 47.949219 61.667969 47.949219 C 54.769531 47.949219 49.28125 53.488281 49.28125 62.347656 Z M 70.324219 62.398438 C 70.324219 66.878906 67.457031 69.34375 64.183594 69.34375 C 60.960938 69.34375 58.042969 66.828125 58.042969 62.347656 C 58.042969 57.867188 60.960938 55.449219 64.183594 55.449219 C 67.457031 55.449219 70.324219 57.917969 70.324219 62.398438 Z M 86.523438 66.675781 C 86.523438 73.976562 90.601562 76.445312 96.441406 76.445312 L 100.820312 76.445312 L 100.820312 69.144531 L 97.75 69.144531 C 95.835938 69.144531 95.132812 68.4375 95.132812 66.777344 L 95.132812 55.5 L 100.769531 55.5 L 100.769531 48.351562 L 95.132812 48.351562 L 95.132812 41.503906 L 86.523438 41.503906 L 86.523438 48.351562 L 83.097656 48.351562 L 83.097656 55.5 L 86.523438 55.5 Z M 109.894531 45.433594 C 112.914062 45.433594 114.980469 43.367188 114.980469 40.800781 C 114.980469 38.183594 112.914062 36.117188 109.894531 36.117188 C 106.824219 36.117188 104.757812 38.183594 104.757812 40.800781 C 104.757812 43.367188 106.824219 45.433594 109.894531 45.433594 Z M 105.617188 48.351562 L 105.617188 80.167969 C 105.617188 81.832031 104.910156 82.535156 102.996094 82.535156 L 100.933594 82.535156 L 100.933594 89.835938 L 104.304688 89.835938 C 110.144531 89.835938 114.222656 87.367188 114.222656 80.070312 L 114.222656 48.351562 Z M 147.902344 62.398438 C 147.902344 53.488281 141.558594 47.949219 133.300781 47.949219 C 125.09375 47.949219 118.703125 53.488281 118.703125 62.398438 C 118.703125 71.308594 124.945312 76.847656 133.199219 76.847656 C 141.457031 76.847656 147.902344 71.308594 147.902344 62.398438 Z M 127.460938 62.398438 C 127.460938 57.617188 130.179688 55.398438 133.300781 55.398438 C 136.324219 55.398438 139.140625 57.617188 139.140625 62.398438 C 139.140625 67.128906 136.273438 69.394531 133.199219 69.394531 C 130.078125 69.394531 127.460938 67.128906 127.460938 62.398438 Z M 164.851562 54.847656 C 167.722656 54.847656 170.140625 56.609375 170.140625 59.679688 L 159.367188 59.679688 C 159.871094 56.558594 162.035156 54.847656 164.851562 54.847656 Z M 178.296875 67.128906 L 169.132812 67.128906 C 168.429688 68.640625 167.070312 69.847656 164.652344 69.847656 C 161.882812 69.847656 159.617188 68.136719 159.316406 64.460938 L 178.796875 64.460938 C 178.898438 63.605469 178.949219 62.75 178.949219 61.945312 C 178.949219 53.386719 173.160156 47.949219 164.953125 47.949219 C 156.597656 47.949219 150.757812 53.488281 150.757812 62.398438 C 150.757812 71.308594 156.699219 76.847656 164.953125 76.847656 C 171.953125 76.847656 176.9375 72.617188 178.296875 67.128906 Z M 178.296875 67.128906 " fill-opacity="1" fill-rule="nonzero"></path><path fill="#c3ff00" d="M 192.605469 72.214844 C 192.605469 69.546875 190.539062 67.484375 187.519531 67.484375 C 184.449219 67.484375 182.382812 69.546875 182.382812 72.214844 C 182.382812 74.78125 184.449219 76.847656 187.519531 76.847656 C 190.539062 76.847656 192.605469 74.78125 192.605469 72.214844 Z M 192.605469 72.214844 " fill-opacity="1" fill-rule="nonzero"></path></svg>